<?xml version="1.0" standalone="no"?>
<!DOCTYPE svg PUBLIC "-//W3C//DTD SVG 20010904//EN"
 "http://www.w3.org/TR/2001/REC-SVG-20010904/DTD/svg10.dtd">
<svg version="1.0" xmlns="http://www.w3.org/2000/svg"
 width="500.000000pt" height="500.000000pt" viewBox="0 0 500.000000 500.000000"
 preserveAspectRatio="xMidYMid meet">
<metadata>
Created by potrace 1.16, written by Peter Selinger 2001-2019
</metadata>
<g transform="translate(0.000000,500.000000) scale(0.100000,-0.100000)"
fill="#000000" stroke="none">
<path d="M3745 3994 c-27 -8 -75 -22 -105 -31 -158 -46 -466 -153 -555 -192
-11 -5 -45 -19 -75 -31 -187 -76 -495 -232 -685 -347 -11 -7 -27 -15 -35 -19
-43 -21 -444 -294 -460 -314 -3 -3 -41 -34 -85 -67 -44 -34 -120 -97 -170
-141 l-90 -80 -135 -17 c-148 -18 -295 -41 -350 -55 -19 -5 -53 -13 -75 -17
-24 -5 62 -7 210 -5 340 5 477 -11 678 -81 l58 -20 147 144 c81 79 169 163
196 187 75 65 275 224 331 263 28 19 52 36 55 39 6 7 163 109 213 139 21 13
41 21 44 17 3 -3 -39 -52 -94 -108 -180 -187 -331 -394 -405 -558 -14 -30 -35
-76 -47 -102 -11 -26 -21 -52 -21 -58 0 -5 -4 -18 -9 -28 -13 -22 -37 -112
-51 -184 -6 -32 -16 -58 -22 -58 -5 0 -27 13 -47 28 -143 111 -366 212 -556
252 -201 43 -718 64 -1030 41 -82 -6 -194 -13 -248 -17 -54 -4 -96 -8 -94 -10
1 -2 54 -10 117 -19 120 -16 243 -37 320 -54 96 -21 341 -88 380 -104 8 -3 42
-14 75 -25 60 -20 88 -31 152 -58 17 -8 34 -14 38 -14 4 0 72 -32 152 -71 223
-108 379 -208 578 -368 16 -14 95 -91 175 -171 80 -81 161 -154 180 -163 44
-21 168 -47 222 -47 22 0 81 5 129 12 l89 12 -8 55 c-12 95 -8 629 5 696 7 33
22 105 33 160 50 250 118 451 229 675 166 335 351 580 653 868 71 66 70 69 -7
46z m-755 -1022 c0 -25 -35 -71 -77 -100 -27 -18 -84 -58 -128 -89 -146 -103
-440 -271 -453 -258 -6 6 94 210 116 235 9 11 23 20 32 20 8 0 74 23 145 51
72 27 177 68 235 90 58 23 107 45 108 50 5 11 22 12 22 1z m-1229 -518 c74
-22 202 -75 211 -88 4 -6 -21 -21 -60 -36 -37 -15 -118 -48 -181 -73 -62 -26
-120 -47 -128 -47 -15 0 -243 109 -253 121 -3 3 -12 9 -20 12 -9 3 -4 6 12 6
24 1 125 33 203 66 17 6 46 18 65 25 19 7 39 17 45 22 14 12 45 10 106 -8z"/>
<path d="M3626 3208 c7 -29 21 -111 31 -183 16 -113 18 -212 18 -775 0 -638 0
-646 -23 -735 -72 -287 -258 -466 -540 -521 -92 -18 -274 -20 -392 -4 -148 19
-354 93 -435 154 l-32 24 -37 -241 c-21 -133 -38 -248 -39 -255 -4 -28 252
-105 463 -141 310 -52 670 -31 931 56 328 108 556 336 647 648 55 186 55 189
62 965 6 585 10 744 23 825 15 97 32 181 43 218 5 16 -17 17 -364 17 l-370 0
14 -52z"/>
<path d="M870 2339 c114 -56 170 -94 170 -114 0 -7 -33 -58 -72 -112 -79 -106
-87 -120 -128 -203 -83 -167 -77 -273 16 -353 32 -27 123 -57 172 -57 42 0 44
2 80 61 77 126 126 204 133 209 3 3 11 14 17 25 6 11 56 81 111 155 55 74 101
140 101 145 0 31 -252 165 -420 223 -153 53 -176 60 -235 67 -49 6 -49 6 55
-46z m275 -113 c49 -12 226 -98 222 -109 -4 -14 -451 -186 -456 -175 -5 15
112 177 186 255 6 7 9 23 6 35 -3 14 -1 18 4 12 4 -6 22 -14 38 -18z"/>
</g>
</svg>
